<?xml version="1.0" standalone="no"?>
<!DOCTYPE svg PUBLIC "-//W3C//DTD SVG 20010904//EN"
 "http://www.w3.org/TR/2001/REC-SVG-20010904/DTD/svg10.dtd">
<svg version="1.0" xmlns="http://www.w3.org/2000/svg"
 width="1440.000000pt" height="1440.000000pt" viewBox="0 0 1440.000000 1440.000000"
 preserveAspectRatio="xMidYMid meet">
<metadata>
Created by potrace 1.11, written by Peter Selinger 2001-2013
</metadata>
<g transform="translate(0.000000,1440.000000) scale(0.100000,-0.100000)"
fill="#000000" stroke="none">
<path d="M8845 13264 c-16 -3 -133 -21 -260 -40 -126 -19 -246 -37 -265 -40
-19 -3 -78 -11 -130 -19 -52 -7 -171 -25 -265 -40 -93 -14 -186 -27 -206 -29
-37 -3 -132 -45 -244 -109 -33 -19 -125 -70 -205 -114 -80 -44 -167 -92 -195
-108 -27 -15 -77 -42 -110 -60 -312 -169 -329 -181 -397 -257 -35 -39 -84 -94
-109 -122 -146 -162 -248 -288 -274 -338 -16 -31 -30 -56 -31 -55 -1 1 -16 29
-34 62 -18 33 -63 101 -99 150 -37 50 -78 106 -91 125 -13 19 -27 37 -30 40
-3 3 -21 26 -40 52 -71 101 -202 187 -308 204 -21 3 -41 8 -45 11 -5 3 -36 12
-70 20 -90 21 -97 23 -147 28 -25 3 -52 8 -60 10 -57 16 -157 20 -470 18 -195
-1 -812 -4 -1370 -6 l-1015 -4 -81 -26 c-127 -39 -157 -56 -250 -142 -124
-113 -134 -125 -279 -337 -57 -84 -59 -100 -57 -508 4 -953 13 -2152 17 -2200
3 -30 7 -165 9 -300 4 -208 18 -398 31 -420 2 -4 18 -74 35 -158 37 -185 39
-189 98 -266 62 -80 119 -135 220 -213 13 -10 44 -35 70 -55 26 -21 50 -38 53
-38 4 0 53 -29 110 -63 84 -51 124 -69 209 -91 112 -30 134 -30 289 -2 47 9
86 14 88 12 3 -2 -97 -54 -220 -115 -173 -87 -231 -120 -255 -149 -17 -20 -48
-55 -69 -77 -21 -22 -63 -69 -93 -105 -30 -35 -66 -75 -79 -89 -13 -15 -46
-53 -75 -85 -28 -33 -58 -67 -66 -76 -8 -8 -35 -40 -60 -70 -25 -30 -47 -57
-50 -60 -3 -3 -16 -18 -29 -35 -12 -16 -37 -46 -55 -65 -85 -94 -82 -84 -116
-345 -39 -303 -37 -285 -65 -445 -14 -74 -30 -162 -36 -195 -6 -33 -15 -80
-20 -105 -12 -53 -68 -353 -74 -392 -2 -15 -9 -55 -15 -90 -12 -65 -5 -387 15
-703 2 -38 7 -159 11 -269 3 -109 12 -222 19 -250 19 -76 100 -348 137 -461
14 -44 21 -101 25 -215 5 -130 10 -165 30 -220 14 -36 31 -85 40 -110 8 -25
26 -75 39 -111 14 -36 26 -74 29 -85 5 -25 24 -80 45 -129 10 -22 20 -53 24
-68 4 -16 19 -40 35 -55 55 -53 201 -185 340 -307 18 -16 39 -35 45 -40 6 -6
49 -44 96 -85 47 -41 87 -78 90 -81 3 -3 48 -44 100 -90 l95 -85 115 -33 c63
-17 124 -34 134 -36 10 -2 58 -15 105 -29 87 -25 163 -41 236 -52 22 -3 49 -8
60 -11 11 -3 29 -8 40 -9 11 -2 31 -6 45 -8 14 -3 45 -7 70 -11 25 -3 77 -13
115 -21 39 -9 120 -24 180 -34 61 -10 124 -21 140 -24 17 -3 77 -15 135 -25
58 -11 121 -22 140 -26 40 -6 73 -13 110 -21 26 -6 79 -6 126 0 16 3 79 11
139 20 172 25 539 76 657 91 60 8 199 15 314 15 231 2 202 -5 439 95 61 26
162 68 225 94 63 26 126 54 140 62 71 45 351 194 360 192 3 -1 31 33 63 75 31
42 69 92 84 109 16 18 44 53 63 79 19 25 63 81 98 124 34 43 62 81 62 83 0 3
21 41 47 84 25 43 59 103 76 133 41 76 43 77 51 28 16 -105 48 -267 62 -317 9
-29 18 -64 20 -78 3 -13 14 -48 24 -76 11 -29 20 -57 20 -64 0 -7 11 -36 24
-65 13 -29 38 -87 55 -128 51 -121 50 -120 146 -170 50 -26 106 -56 125 -68
39 -22 204 -105 235 -117 154 -62 212 -66 820 -70 281 -2 614 -8 740 -14 127
-6 304 -13 395 -16 91 -3 179 -8 196 -11 36 -5 250 -5 344 1 36 2 126 6 200 9
198 9 304 15 500 27 96 6 316 10 488 10 l313 -2 47 33 c26 18 59 39 74 47 15
8 36 22 46 32 11 9 32 24 48 32 28 15 72 56 115 107 11 14 39 47 62 73 22 27
46 58 52 70 25 47 60 106 117 200 l59 97 -5 68 c-14 169 -36 475 -38 527 -1
46 11 258 17 295 3 14 9 93 15 175 6 83 22 213 36 290 14 77 27 151 29 165 2
14 6 39 9 55 3 17 8 47 11 69 4 21 9 48 11 60 3 11 7 35 9 51 2 17 9 58 16 92
6 35 9 84 6 110 -5 43 -81 531 -106 678 -6 33 -13 123 -16 200 -8 199 -16 336
-21 360 -11 51 -36 195 -44 247 -5 32 -11 61 -13 65 -3 4 -8 31 -11 58 -4 29
-14 55 -24 63 -9 7 -26 21 -37 30 -22 19 -191 160 -215 180 -8 6 -51 43 -95
80 -77 66 -142 109 -308 202 l-77 44 32 20 c18 11 35 23 38 26 3 4 39 31 80
62 41 30 143 126 225 213 83 88 177 187 210 221 34 35 75 90 92 126 82 164
256 527 270 561 8 20 20 37 26 37 6 0 8 3 5 6 -4 3 20 58 52 122 31 64 67 141
80 170 12 28 26 52 31 52 5 0 8 3 7 8 -1 4 7 27 19 52 12 26 28 96 38 165 9
66 23 161 30 210 18 117 34 229 41 285 3 25 9 70 14 100 11 64 41 263 46 300
1 14 8 61 14 105 10 67 8 123 -10 335 -11 140 -23 284 -26 320 -2 36 -6 90 -9
120 -6 60 -22 271 -31 390 -7 93 -20 144 -88 351 -29 90 -102 313 -161 494
-58 182 -115 352 -126 378 -20 48 -54 83 -314 328 -86 81 -200 189 -390 371
-171 164 -167 161 -512 332 -345 172 -345 171 -408 181 -22 3 -94 15 -160 26
-66 11 -160 27 -210 35 -49 7 -116 18 -147 24 -73 13 -154 26 -243 40 -38 7
-117 20 -175 30 -68 13 -177 21 -310 25 -113 3 -259 7 -325 10 -204 8 -648 14
-680 9z m-3022 -5025 c24 -47 84 -135 133 -195 48 -60 77 -101 63 -92 -13 9
-53 31 -89 49 -36 17 -76 39 -90 49 -14 9 -70 41 -126 70 l-101 53 50 51 c27
28 60 66 74 84 15 18 30 29 34 25 4 -4 27 -47 52 -94z m2044 -2040 c34 -26 67
-49 75 -51 10 -4 8 -12 -8 -34 -11 -16 -29 -63 -39 -104 -10 -41 -21 -81 -25
-89 -4 -8 -13 33 -20 90 -11 92 -31 153 -59 179 -14 12 -69 87 -81 109 -14 26
8 12 157 -100z"/>
</g>
</svg>
